<?xml version="1.0" encoding="utf-8"?>
<!-- Generator: Adobe Illustrator 24.0.2, SVG Export Plug-In . SVG Version: 6.00 Build 0)  -->
<svg version="1.1" id="Capa_1" xmlns="http://www.w3.org/2000/svg" xmlns:xlink="http://www.w3.org/1999/xlink" x="0px" y="0px"
	 viewBox="0 0 24 24" style="enable-background:new 0 0 24 24;" xml:space="preserve">
<style type="text/css">
	.st0{fill:#F472B6;}
	.st1{fill:#F3F4F6;}
	.st2{fill:#636A77;}
	.st3{fill:#515967;}
	.st4{fill:none;stroke:#515967;stroke-width:1.6744;stroke-miterlimit:10;}
	.st5{fill:none;stroke:#515967;stroke-width:1.7939;stroke-miterlimit:10;}
	.st6{fill:none;stroke:#515967;stroke-width:1.5;stroke-miterlimit:10;}
	.st7{fill:none;stroke:#515967;stroke-width:1.4361;stroke-miterlimit:10;}
	.st8{fill:none;stroke:#515967;stroke-width:1.65;stroke-miterlimit:10;}
	.st9{fill:none;stroke:#FFFFFF;stroke-width:1.7939;stroke-miterlimit:10;}
	.st10{fill:none;stroke:#FFFFFF;stroke-width:1.5;stroke-miterlimit:10;}
	.st11{fill:none;stroke:#FFFFFF;stroke-width:1.4361;stroke-miterlimit:10;}
	.st12{fill:none;stroke:#FFFFFF;stroke-width:1.65;stroke-miterlimit:10;}
	.st13{fill:none;stroke:#FFFFFF;stroke-width:1.6744;stroke-miterlimit:10;}
	.st14{fill:#FFFFFF;}
</style>
<g>
	<path class="st13" d="M8.6,9.8H2c-0.6,0-1.1-0.5-1.1-1.1V2c0-0.6,0.5-1.1,1.1-1.1h6.6c0.6,0,1.1,0.5,1.1,1.1v6.6
		C9.8,9.3,9.3,9.8,8.6,9.8z"/>
	<path class="st13" d="M5.8,23.2H4.8c-2.2,0-4-1.8-4-4v-0.9c0-2.2,1.8-4,4-4h0.9c2.2,0,4,1.8,4,4v0.9C9.8,21.4,8,23.2,5.8,23.2z"/>
	<path class="st13" d="M22,23.2h-6.6c-0.6,0-1.1-0.5-1.1-1.1v-6.6c0-0.6,0.5-1.1,1.1-1.1H22c0.6,0,1.1,0.5,1.1,1.1V22
		C23.2,22.7,22.7,23.2,22,23.2z"/>
	<path class="st13" d="M19.2,9.8h-0.9c-2.2,0-4-1.8-4-4V4.8c0-2.2,1.8-4,4-4h0.9c2.2,0,4,1.8,4,4v0.9C23.2,8,21.4,9.8,19.2,9.8z"/>
</g>
</svg>
