<?xml version="1.0" encoding="utf-8"?>
<!-- Generator: Adobe Illustrator 24.0.2, SVG Export Plug-In . SVG Version: 6.00 Build 0)  -->
<svg version="1.1" id="Capa_1" xmlns="http://www.w3.org/2000/svg" xmlns:xlink="http://www.w3.org/1999/xlink" x="0px" y="0px"
	 viewBox="0 0 24 24" style="enable-background:new 0 0 24 24;" xml:space="preserve">
<style type="text/css">
	.st0{fill:#F472B6;}
	.st1{fill:#F3F4F6;}
	.st2{fill:#636A77;}
	.st3{fill:#515967;}
	.st4{fill:none;stroke:#515967;stroke-width:1.6744;stroke-miterlimit:10;}
	.st5{fill:none;stroke:#515967;stroke-width:1.7939;stroke-miterlimit:10;}
	.st6{fill:none;stroke:#515967;stroke-width:1.5;stroke-miterlimit:10;}
	.st7{fill:none;stroke:#515967;stroke-width:1.4361;stroke-miterlimit:10;}
	.st8{fill:none;stroke:#515967;stroke-width:1.65;stroke-miterlimit:10;}
	.st9{fill:none;stroke:#FFFFFF;stroke-width:1.7939;stroke-miterlimit:10;}
	.st10{fill:none;stroke:#FFFFFF;stroke-width:1.5;stroke-miterlimit:10;}
	.st11{fill:none;stroke:#FFFFFF;stroke-width:1.4361;stroke-miterlimit:10;}
	.st12{fill:none;stroke:#FFFFFF;stroke-width:1.65;stroke-miterlimit:10;}
	.st13{fill:none;stroke:#FFFFFF;stroke-width:1.6744;stroke-miterlimit:10;}
	.st14{fill:#FFFFFF;}
</style>
<path class="st5" d="M21.9,23.1H2.1c-0.6,0-1.1-0.5-1.1-1.1V2.1c0-0.6,0.5-1.1,1.1-1.1h19.8c0.6,0,1.1,0.5,1.1,1.1v19.8
	C23.1,22.6,22.6,23.1,21.9,23.1z"/>
<line class="st6" x1="6" y1="7" x2="14" y2="7"/>
<line class="st6" x1="6" y1="10.2" x2="14" y2="10.2"/>
<line class="st6" x1="6" y1="13.3" x2="14" y2="13.3"/>
<line class="st6" x1="6" y1="16.5" x2="14" y2="16.5"/>
<line class="st6" x1="16" y1="7" x2="18" y2="7"/>
<line class="st6" x1="16" y1="10.2" x2="18" y2="10.2"/>
<line class="st6" x1="16" y1="13.3" x2="18" y2="13.3"/>
<line class="st6" x1="16" y1="16.5" x2="18" y2="16.5"/>
</svg>
